<svg xmlns="http://www.w3.org/2000/svg" width="347" height="320" viewBox="0 0 347 320"><g><g><path d="M117.03.675c.403.27.518 3.042.253 6.159-.264 3.116.006 10.616.6 16.666.595 6.05 2.177 14.825 3.517 19.5 1.34 4.675 3.965 11.875 5.834 16 1.87 4.125 5.825 11.1 8.792 15.5 2.966 4.4 9.236 11.83 13.933 16.511 4.698 4.682 11.466 10.436 15.041 12.788 3.575 2.351 7.4 4.275 8.5 4.275 1.1 0 4.925-1.924 8.5-4.275 3.575-2.352 10.343-8.106 15.04-12.788 4.698-4.68 10.968-12.111 13.934-16.511 2.967-4.4 6.923-11.375 8.792-15.5 1.87-4.125 4.495-11.325 5.834-16 1.34-4.675 2.922-13.45 3.517-19.5.594-6.05.811-13.588.482-16.75-.33-3.163-.261-5.934.151-6.16.412-.225 3.525 2.813 6.918 6.75 3.392 3.938 7.554 9.072 9.25 11.41 1.695 2.337 4.423 6.612 6.062 9.5 1.64 2.887 2.99 5.812 3 6.5.011.687-1.598 4.737-3.575 9-2.985 6.436-3.409 8.131-2.5 10 .602 1.237 3.355 3.262 6.118 4.5 2.763 1.237 5.013 2.587 5 3-.013.412-1.157 4.687-2.542 9.5-1.386 4.812-2.52 10.55-2.52 12.75-.002 2.2.717 6.025 1.595 8.5.879 2.475 2.479 5.625 3.555 7 1.077 1.375 1.942 2.95 1.922 3.5-.02.55-3.193 4.6-7.051 9-4.072 4.644-8.702 11.356-11.037 16-3.277 6.52-4.122 9.388-4.567 15.5-.3 4.125-.732 8.062-.961 8.75-.315.945-1.82.75-6.167-.797-3.162-1.125-8.337-3.375-11.5-5-3.162-1.624-9.575-5.428-14.25-8.453-4.675-3.025-8.499-5.838-8.497-6.25.001-.413 3.714-2.056 8.25-3.653s9.372-3.593 10.747-4.435c1.375-.842 3.525-2.46 4.777-3.597 1.253-1.136 2.536-3.415 2.852-5.065.389-2.028-.149-4.458-1.66-7.5-1.23-2.475-3.525-6.188-5.102-8.25-1.577-2.063-3.43-3.738-4.117-3.724-.688.014-4.4 2.41-8.25 5.322-3.85 2.913-9.7 7.02-13 9.129-3.3 2.108-8.25 4.884-11 6.168-2.75 1.285-6.35 2.335-8 2.335-1.65 0-5.25-1.05-8-2.335-2.75-1.284-7.7-4.06-11-6.168-3.3-2.108-9.15-6.216-13-9.13-3.85-2.912-7.562-5.307-8.25-5.32-.688-.015-2.54 1.66-4.117 3.723-1.577 2.062-3.873 5.775-5.102 8.25-1.511 3.042-2.049 5.472-1.66 7.5.316 1.65 1.599 3.93 2.852 5.065 1.252 1.136 3.402 2.755 4.777 3.597 1.375.842 6.211 2.838 10.747 4.435 4.536 1.597 8.249 3.24 8.25 3.653.002.412-3.822 3.225-8.497 6.25s-11.088 6.829-14.25 8.453c-3.163 1.625-8.338 3.875-11.5 5-4.347 1.548-5.852 1.742-6.167.797-.229-.688-.662-4.625-.961-8.75-.445-6.112-1.29-8.98-4.567-15.5-2.335-4.644-6.965-11.356-11.037-16-3.858-4.4-7.031-8.45-7.051-9-.02-.55.845-2.125 1.922-3.5 1.076-1.375 2.676-4.525 3.555-7 .878-2.475 1.597-6.3 1.596-8.5-.001-2.2-1.135-7.938-2.52-12.75-1.386-4.813-2.53-9.088-2.543-9.5-.013-.413 2.237-1.763 5-3 2.763-1.238 5.516-3.263 6.118-4.5.909-1.869.485-3.564-2.5-10-1.977-4.263-3.586-8.313-3.575-9 .01-.688 1.36-3.613 3-6.5 1.639-2.888 4.367-7.163 6.062-9.5 1.696-2.338 5.812-7.472 9.147-11.41 3.336-3.937 6.396-6.937 6.8-6.665zm56.396 10.316c.59-.005 4.42 7.307 8.51 16.25 4.089 8.942 8.02 18.734 8.734 21.759.714 3.025 1.306 8.762 1.314 12.75.009 3.988-.486 9.612-1.099 12.5-.613 2.887-2.152 7.5-3.42 10.25-1.27 2.75-4.368 7.362-6.886 10.25-3.238 3.712-5.311 5.25-7.079 5.25-1.768 0-3.841-1.538-7.079-5.25-2.518-2.887-5.616-7.5-6.885-10.25-1.269-2.75-2.808-7.362-3.421-10.25s-1.108-8.512-1.1-12.5c.01-3.988.6-9.725 1.315-12.75.715-3.025 4.612-12.813 8.66-21.75 4.05-8.938 7.845-16.254 8.436-16.26zM48.899 155.007c.33.005 5.326 2.712 11.101 6.016 5.775 3.305 12.975 7.929 16 10.276 3.76 2.917 6.159 5.755 7.582 8.97 1.145 2.587 1.931 5.947 1.748 7.467-.202 1.675-2.139 4.538-4.914 7.264-2.52 2.475-5.533 6.3-6.696 8.5-1.6 3.025-2.121 5.828-2.14 11.5-.024 6.78.37 8.315 4.108 16 2.38 4.893 6.848 11.683 10.53 16 3.516 4.125 8.281 8.962 10.588 10.75 2.967 2.3 4.375 2.884 4.814 2 .341-.688-.213-3.05-1.232-5.25-1.02-2.2-3.83-7.375-6.247-11.5s-5.493-9.975-6.835-13c-1.342-3.025-2.662-7.525-2.932-10-.375-3.428-.002-5.274 1.567-7.75 1.132-1.788 3.276-4.038 4.764-5 1.976-1.278 4.605-1.723 9.75-1.649 5.197.075 8.881.834 14.045 2.893 3.85 1.535 12.625 5.62 19.5 9.075 6.875 3.456 13.738 6.767 15.25 7.357 1.813.708 2.92.733 3.25.074.275-.55-2.728-3.813-6.674-7.25-3.945-3.438-10.513-9.4-14.596-13.25-4.082-3.85-8.014-8.125-8.737-9.5-.723-1.375-1.853-4.525-2.511-7-.659-2.475-.924-6.188-.59-8.25.532-3.281.952-3.749 3.358-3.738 1.513.006 5 .621 7.75 1.366 2.75.745 7.7 2.488 11 3.875 3.3 1.386 11.287 4.822 17.75 7.634 6.463 2.812 12.875 5.113 14.25 5.113s7.787-2.3 14.25-5.113c6.463-2.812 14.45-6.248 17.75-7.634 3.3-1.387 8.25-3.13 11-3.875 2.75-.745 6.237-1.36 7.75-1.366 2.406-.01 2.826.457 3.358 3.738.334 2.062.069 5.775-.59 8.25-.658 2.475-1.788 5.625-2.511 7-.723 1.375-4.655 5.65-8.737 9.5-4.083 3.85-10.65 9.812-14.596 13.25-3.946 3.437-6.949 6.7-6.674 7.25.33.66 1.437.634 3.25-.074 1.512-.59 8.375-3.9 15.25-7.357 6.875-3.456 15.65-7.54 19.5-9.075 5.164-2.06 8.848-2.818 14.045-2.893 5.145-.074 7.774.37 9.75 1.649 1.488.962 3.632 3.212 4.764 5 1.569 2.476 1.942 4.322 1.567 7.75-.27 2.475-1.59 6.975-2.932 10-1.342 3.025-4.418 8.875-6.835 13-2.416 4.125-5.228 9.3-6.247 11.5-1.019 2.2-1.573 4.562-1.232 5.25.439.884 1.847.3 4.814-2 2.307-1.788 7.072-6.625 10.589-10.75 3.68-4.317 8.149-11.107 10.529-16 3.738-7.685 4.132-9.22 4.109-16-.02-5.672-.542-8.475-2.141-11.5-1.163-2.2-4.176-6.025-6.696-8.5-2.668-2.621-4.814-5.753-5.14-7.5-.382-2.044.175-4.423 1.748-7.467 1.348-2.61 4.595-6.242 7.808-8.734 3.025-2.347 10.345-7.087 16.266-10.533 5.921-3.446 10.924-6.041 11.117-5.766.194.275 1.559 5.225 3.034 11 1.475 5.775 3.102 11.625 3.615 13 .514 1.375 2.107 3.625 3.54 5 2.489 2.387 3.158 2.5 26.928 2.5l-.314 5c-.173 2.75.164 8.037.75 11.75.585 3.712 1.964 8.55 3.064 10.75 1.1 2.2 3.331 5.462 4.958 7.25 2.632 2.891 2.961 3.967 2.987 9.75.015 3.575-.202 7.4-.483 8.5-.394 1.541-3.66 3.112-14.236 6.847-7.55 2.665-24.751 8.869-38.226 13.786-13.475 4.917-29.675 10.942-36 13.39-6.325 2.447-19.15 8.333-28.5 13.079-9.35 4.746-18.8 9.866-21 11.377-2.2 1.51-4.9 3.03-6 3.377-1.1.346-5.15 3.685-9 7.418-3.85 3.734-7.675 7.788-8.5 9.01-1.109 1.64-1.891 1.969-3 1.257-1.148-.737-1.617-3.81-2-13.083-.44-10.645-.743-12.295-2.5-13.556-1.1-.79-2.9-1.436-4-1.436s-2.9.646-4 1.436c-1.757 1.261-2.06 2.911-2.5 13.556-.383 9.274-.852 12.346-2 13.083-1.109.712-1.891.383-3-1.258-.825-1.221-4.65-5.275-8.5-9.009-3.85-3.733-7.9-7.072-9-7.418-1.1-.347-3.8-1.84-6-3.318-2.2-1.479-8.95-5.288-15-8.466-6.05-3.177-15.725-7.928-21.5-10.557-5.775-2.629-22.425-9.15-37-14.49s-34.825-12.642-45-16.227c-10.175-3.585-18.83-7.03-19.235-7.658-.404-.627-.757-4.29-.784-8.14-.044-6.363.236-7.364 3.084-11 1.724-2.2 3.99-5.688 5.034-7.75 1.046-2.063 2.38-6.788 2.965-10.5.586-3.713.923-9 .436-16.75h12.136c10.73 0 12.393-.232 14.354-2 1.22-1.1 2.776-3.125 3.458-4.5.682-1.375 2.502-7.563 4.045-13.75 1.543-6.188 3.075-11.247 3.406-11.243z"/></g></g></svg>